<svg xmlns="http://www.w3.org/2000/svg" xmlns:xlink="http://www.w3.org/1999/xlink" viewBox="0 0 1271.03 2244.91"><defs><style>.cls-1{fill:none;}.cls-2{fill:#f9f8ea;}.cls-3{clip-path:url(#clip-path);}.cls-4{opacity:0.2;fill:url(#linear-gradient);}.cls-5{opacity:0.25;fill:url(#linear-gradient-2);}.cls-6{opacity:0.3;fill:url(#linear-gradient-3);}.cls-7{opacity:0.35;fill:url(#linear-gradient-4);}.cls-8{opacity:0.4;fill:url(#linear-gradient-5);}.cls-9{opacity:0.45;fill:url(#linear-gradient-6);}.cls-10{opacity:0.5;fill:url(#linear-gradient-7);}.cls-11{opacity:0.55;fill:url(#linear-gradient-8);}.cls-12{fill:url(#linear-gradient-9);}</style><clipPath id="clip-path"><rect class="cls-1" x="191.03" y="324.91" width="1080" height="1920"/></clipPath><linearGradient id="linear-gradient" x1="1525.02" y1="2924.26" x2="3674.43" y2="3307.92" gradientTransform="translate(3612.91 -1557.05) rotate(90.65)" gradientUnits="userSpaceOnUse"><stop offset="0" stop-color="#d74177"/><stop offset="1" stop-color="#ffe98a"/></linearGradient><linearGradient id="linear-gradient-2" x1="1525.96" y1="2918.94" x2="3675.38" y2="3302.61" xlink:href="#linear-gradient"/><linearGradient id="linear-gradient-3" x1="1526.92" y1="2913.57" x2="3676.34" y2="3297.24" xlink:href="#linear-gradient"/><linearGradient id="linear-gradient-4" x1="1527.94" y1="2907.85" x2="3677.36" y2="3291.52" xlink:href="#linear-gradient"/><linearGradient id="linear-gradient-5" x1="1529.04" y1="2901.7" x2="3678.45" y2="3285.37" xlink:href="#linear-gradient"/><linearGradient id="linear-gradient-6" x1="1530.34" y1="2894.4" x2="3679.76" y2="3278.07" xlink:href="#linear-gradient"/><linearGradient id="linear-gradient-7" x1="1532.21" y1="2883.96" x2="3681.62" y2="3267.63" xlink:href="#linear-gradient"/><linearGradient id="linear-gradient-8" x1="1533.71" y1="2875.54" x2="3683.12" y2="3259.21" xlink:href="#linear-gradient"/><linearGradient id="linear-gradient-9" x1="1533.93" y1="2874.31" x2="3683.34" y2="3257.97" xlink:href="#linear-gradient"/></defs><title>bg_main_TGL</title><g id="Layer_2" data-name="Layer 2"><g id="Layer_1-2" data-name="Layer 1"><rect class="cls-2" x="191.03" y="324.91" width="1080" height="1920"/><g class="cls-3"><path class="cls-4" d="M817.87,17c61,14,120.46,45,156.33,96.3C996.95,145.86,1009,184.55,1019,223c72.86,279.52,52,582.6-58.44,849.51-35.4,85.54-79.57,167.17-125.7,247.44q-109.33,190.21-233.79,371.18c-33.44,48.62-67.77,96.82-107.2,140.71-32.7,36.39-71.66,71.2-119.78,80-47.6,8.72-97.25-10.21-134.28-41.36s-63-73.4-84.5-116.77C57.17,1555.61,42.87,1328.23,22.5,1108.1c-17-183.56-39.26-370.16-3-550.91s143-358.7,313.89-427.83c44.29-17.91,91.56-28.11,134.81-48.44C514.54,59.13,562.91,22.5,611.72,8.46,671.33-8.69,758.44,3.37,817.87,17Z"/><path class="cls-5" d="M937.89,172.81c20.67,29,31.55,63.49,40.89,97.61,68.73,251.21,45.77,519.34-57.16,755.22-32.71,75.5-73.17,147.51-115.18,218.32-65.75,111.65-138,221.65-214.77,328.32-30.68,42.95-62.16,85.48-98.07,124.16-29.85,32.08-65.16,62.7-108.4,70.47-43,7.69-87.61-8.95-121.05-36.48-33.66-27.58-57.42-65.15-76.89-104.05C99.93,1451,88.57,1249.37,73,1054,59.44,891.78,41.69,726.86,75.19,567.19s128.94-316.91,280.1-378.55c39.28-16.05,81.14-25.32,119.43-43.41,41.22-19.52,84.21-51.57,127.22-64.49,55.68-16.72,135.12-8,190.43,4C848.73,97.07,903.87,125.15,937.89,172.81Z"/><path class="cls-6" d="M901.62,232.43c18.57,25.4,28.3,55.76,37,85.59,64.65,222.91,38.94,455.81-55.87,660.93-30.21,65.37-67,127.71-104.66,189.2-59,96.28-125.47,192.36-195.76,285.46-28.06,37.17-56.55,74.15-88.94,107.6-27,27.76-58.65,54.19-97,60.92s-77.91-7.75-107.83-31.59c-30.23-24.08-51.9-56.85-69.28-91.34-76.83-152.44-84.23-328.59-95.73-499.08-9.51-141-23.31-284.19,7.44-422.79C161.87,438.57,245.82,302.2,377.25,248c34.28-14.19,70.73-22.52,104.06-38.38,36.08-17.24,73.68-44.79,110.92-56.52,51.75-16.31,123.51-10.83,174.71-.49C818.62,163.24,869.45,188.43,901.62,232.43Z"/><path class="cls-7" d="M865.45,292.26c16.45,21.85,25.07,48,33,73.57,60.62,194.64,32.45,392.39-54.58,566.64-27.61,55.28-60.69,108-94.14,160.09-52,81-112.72,163.2-176.74,242.59-25.35,31.44-50.94,62.81-79.81,91-24.16,23.45-52.15,45.69-85.64,51.36-33.66,5.64-68.24-6.53-94.6-26.7-26.83-20.54-46.34-48.58-61.67-78.62-66.15-129.63-70.13-280.14-77.18-425.83-5.79-119.68-15.34-241.21,12.67-358.74,28.28-117.76,100.83-233.34,212.52-280,29.27-12.32,60.31-19.73,88.69-33.36,30.95-15,63.14-38.08,94.61-48.55,47.84-15.92,111.93-13.81,159-5S835.09,251.94,865.45,292.26Z"/><path class="cls-8" d="M829.5,352.34c14.29,18.33,21.85,40.3,29.09,61.55,56.7,166.38,26,329-53.29,472.35-25,45.18-54.37,88.24-83.61,131-45,65.75-99.93,134.05-157.73,199.73-22.63,25.72-45.27,51.55-70.68,74.49-21.26,19.19-45.64,37.19-74.26,41.81-29,4.61-58.58-5.29-81.37-21.82-23.44-17-40.78-40.3-54.06-65.91-55.44-106.84-56.06-231.65-58.64-352.57-2.1-98.36-7.37-198.22,17.9-294.68,25.63-96.76,86.86-191.36,178.73-230.73,24.29-10.41,49.91-16.89,73.31-28.33,25.84-12.64,52.57-31.46,78.31-40.58,43.93-15.58,100.32-16.7,143.26-9.56C758.83,296.12,800.93,315.7,829.5,352.34Z"/><path class="cls-9" d="M794.55,412.73c12.09,14.83,18.66,32.57,25.15,49.53,52.93,138.13,19.63,265.53-52,378.06-22.34,35.09-48,68.5-73.09,101.85-37.94,50.49-87.08,104.91-138.72,156.87-19.88,20-39.66,40.23-61.55,57.94-18.41,14.89-39.14,28.68-62.88,32.26-24.37,3.58-48.93-4.05-68.14-16.93-20.06-13.45-35.21-32-46.46-53.19-44.68-84.06-42-183.13-40.09-279.32,1.55-77,.45-155.28,23.13-230.62,22.82-75.81,72.82-149.54,144.94-181.46,19.29-8.54,39.5-14.08,57.94-23.3,20.71-10.35,42-25,62-32.61,40-15.3,88.71-19.57,127.54-14.09C730,363,767.7,379.8,794.55,412.73Z"/><path class="cls-10" d="M762.85,473.45c9.83,11.37,15.51,24.83,21.22,37.5,49.48,109.86,13.42,202.12-50.72,283.76-19.64,25-41.63,48.77-62.57,72.74-30.8,35.26-74.13,75.83-119.7,114-17.09,14.32-34.05,28.9-52.42,41.38-15.57,10.58-32.62,20.22-51.5,22.71-19.71,2.6-39.29-2.8-54.91-12A105.55,105.55,0,0,1,353.4,993c-33.83-61.32-28.1-134.54-21.55-206.06,5.09-55.61,8.41-112.31,28.35-166.56C380.37,565.59,419,512.68,471.37,488.23c14.28-6.67,29.08-11.29,42.57-18.27,15.58-8.07,31.34-18.61,45.7-24.64,36.13-15.17,77.1-22.43,111.81-18.62C704.49,430.33,737.64,444.3,762.85,473.45Z"/><path class="cls-11" d="M732.27,534.45c7.51,8,12.45,17.06,17.29,25.48,46.69,81.36,7.53,138.86-49.43,189.47-16.84,15-35.11,29.1-52,43.62-23.47,20.13-61,46.91-100.69,71.14-14.24,8.69-28.47,17.55-43.29,24.83C491.36,895.25,478,900.7,464,902.15A79.52,79.52,0,0,1,422.3,895c-13.36-6.29-24-15.51-31.24-27.76-22.82-38.66-14.48-85.86-3-132.8,8.36-34.16,16.41-69.34,33.58-102.5,17.53-33.84,44.72-66,77.36-82.91,9.28-4.81,18.66-8.5,27.19-13.24,10.44-5.8,20.62-12.46,29.4-16.67,32.08-15.41,65.49-25.26,96.09-23.15C680.06,497.91,708.53,509.23,732.27,534.45Z"/><path class="cls-12" d="M626.37,718.8c-37.45,13.16-165,67.9-196.66,22.84C398.39,697,522.17,612.77,552.56,593.1c51.07-33.06,102-41.53,150.13,2.55C785.85,671.86,691.08,696.05,626.37,718.8Z"/></g></g></g></svg>