<svg xmlns="http://www.w3.org/2000/svg" viewBox="0 0 84.09 81.34"><defs><style>.cls-1{fill:#fff;}</style></defs><title>icon_home_TGL</title><g id="Layer_2" data-name="Layer 2"><g id="Layer_1-2" data-name="Layer 1"><path class="cls-1" d="M83,39.69A4,4,0,0,0,82.7,34L45.13,1.1A4.69,4.69,0,0,0,39,1.17L1.31,35.7a4,4,0,0,0-.18,5.72l.95,1a4.13,4.13,0,0,0,5.66.43l2.82-2.52V77.24a4.1,4.1,0,0,0,4.1,4.1H29.46a4.1,4.1,0,0,0,4.1-4.1V51.48H52.18V77.25A3.86,3.86,0,0,0,56,81.34H71.63a4.1,4.1,0,0,0,4.1-4.1V40.84l1.74,1.52c1,.84,3,.17,4.5-1.51Z"/></g></g></svg>