<svg xmlns="http://www.w3.org/2000/svg" viewBox="0 0 98 98"><defs><style>.cls-1{fill:#fff;}</style></defs><title>icon_Settings_TGL</title><g id="Layer_2" data-name="Layer 2"><g id="Layer_1-2" data-name="Layer 1"><path class="cls-1" d="M93,38.71l-6.88-1.17a38.84,38.84,0,0,0-2.76-6.67L87.4,25.2a6,6,0,0,0-.66-7.8l-6.1-6.1a6,6,0,0,0-4.28-1.78,6,6,0,0,0-3.5,1.13L67.17,14.7a38.44,38.44,0,0,0-6.92-2.85L59.1,5.06a6,6,0,0,0-6-5.06H44.51a6,6,0,0,0-6,5.06l-1.19,7a37.88,37.88,0,0,0-6.65,2.8l-5.63-4.05a6,6,0,0,0-7.8.66l-6.12,6.1a6.06,6.06,0,0,0-.66,7.8l4.09,5.75a37.94,37.94,0,0,0-2.72,6.69l-6.8,1.15A6,6,0,0,0,0,44.9v8.62a6,6,0,0,0,5.06,6l7,1.19a37.88,37.88,0,0,0,2.8,6.65l-4,5.61a6,6,0,0,0,.66,7.8l6.1,6.1a6,6,0,0,0,4.28,1.78,6,6,0,0,0,3.5-1.13l5.75-4.09a38.73,38.73,0,0,0,6.47,2.66l1.15,6.88a6,6,0,0,0,6,5.06h8.64a6,6,0,0,0,6-5.06l1.17-6.88a38.84,38.84,0,0,0,6.67-2.76l5.67,4.05a6,6,0,0,0,3.52,1.13h0A6,6,0,0,0,80.6,86.7l6.1-6.1a6.06,6.06,0,0,0,.66-7.8L83.3,67.11a38.56,38.56,0,0,0,2.76-6.67l6.88-1.15a6,6,0,0,0,5.06-6V44.69A6,6,0,0,0,93,38.71ZM92.46,53.4a.53.53,0,0,1-.45.53l-8.57,1.43a2.74,2.74,0,0,0-2.2,2,32.67,32.67,0,0,1-3.55,8.55,2.76,2.76,0,0,0,.12,3l5,7.1a.56.56,0,0,1-.06.69L76.7,82.8a.52.52,0,0,1-.39.16.5.5,0,0,1-.31-.1l-7.08-5a2.76,2.76,0,0,0-3-.12,32.67,32.67,0,0,1-8.55,3.55,2.71,2.71,0,0,0-2,2.2L53.91,92a.53.53,0,0,1-.53.45H44.66a.53.53,0,0,1-.53-.45L42.7,83.43a2.75,2.75,0,0,0-2-2.21,34,34,0,0,1-8.39-3.44,2.83,2.83,0,0,0-1.39-.37,2.69,2.69,0,0,0-1.6.51L22.14,83a.61.61,0,0,1-.31.1.55.55,0,0,1-.39-.16l-6.1-6.1a.55.55,0,0,1-.06-.7l5-7.06a2.8,2.8,0,0,0,.12-3,32.44,32.44,0,0,1-3.6-8.55,2.8,2.8,0,0,0-2.21-2L6,54a.53.53,0,0,1-.45-.53V44.89A.53.53,0,0,1,6,44.36l8.53-1.43a2.77,2.77,0,0,0,2.23-2,32.72,32.72,0,0,1,3.5-8.59,2.73,2.73,0,0,0-.14-3L15,22.14a.56.56,0,0,1,.06-.7l6.1-6.1a.52.52,0,0,1,.39-.16.5.5,0,0,1,.31.1l7.06,5a2.8,2.8,0,0,0,3,.12,32.44,32.44,0,0,1,8.55-3.6,2.8,2.8,0,0,0,2-2.21L44,6a.53.53,0,0,1,.53-.45h8.61a.53.53,0,0,1,.53.45l1.43,8.53a2.77,2.77,0,0,0,2,2.23,33.21,33.21,0,0,1,8.78,3.6,2.77,2.77,0,0,0,3-.12L76,15.14a.61.61,0,0,1,.31-.1.55.55,0,0,1,.39.16l6.1,6.1a.55.55,0,0,1,.06.7l-5.05,7.1a2.76,2.76,0,0,0-.12,3,32.75,32.75,0,0,1,3.56,8.57,2.72,2.72,0,0,0,2.21,2L92,44.15a.53.53,0,0,1,.45.53V53.4Z"/><path class="cls-1" d="M49,27.93A21.13,21.13,0,1,0,70.11,49.06,21.15,21.15,0,0,0,49,27.93Zm0,36.74A15.61,15.61,0,1,1,64.59,49.06,15.62,15.62,0,0,1,49,64.67Z"/></g></g></svg>