<svg xmlns="http://www.w3.org/2000/svg" viewBox="0 0 115.8 79.95"><defs><style>.cls-1{fill:#fff;}</style></defs><title>icon_creditCard_TGL</title><g id="Layer_2" data-name="Layer 2"><g id="Layer_1-2" data-name="Layer 1"><path class="cls-1" d="M100.93,0H14.87C6.67,0,0,6.12,0,13.64V66.31c0,7.52,6.67,13.63,14.87,13.64h86.06c8.19,0,14.86-6.12,14.87-13.64V13.64C115.79,6.12,109.12,0,100.93,0ZM14.87,9.72h86c2.52,0,4.58,1.77,4.58,3.92v5.6H10.29v-5.6C10.3,11.49,12.35,9.73,14.87,9.72Zm86.05,60.5h-86c-2.52,0-4.58-1.77-4.59-3.92V34.42h95.21V66.3C105.5,68.46,103.44,70.22,100.93,70.23Z"/></g></g></svg>