<svg xmlns="http://www.w3.org/2000/svg" viewBox="0 0 59.96 80"><defs><style>.cls-1{fill:#fff;}</style></defs><title>icon_GovtID_TGL</title><g id="Layer_2" data-name="Layer 2"><g id="Layer_1-2" data-name="Layer 1"><path class="cls-1" d="M30,53a13.09,13.09,0,0,0-9.31,3.89A13.59,13.59,0,0,0,17,64.55H43.05a13.66,13.66,0,0,0-3.73-7.71A13.09,13.09,0,0,0,30,53Z"/><circle class="cls-1" cx="30.01" cy="32.89" r="7.04"/><path class="cls-1" d="M51.14,0H8.82A8.82,8.82,0,0,0,0,8.81V71.19A8.82,8.82,0,0,0,8.82,80H51.14A8.82,8.82,0,0,0,60,71.19V8.81A8.82,8.82,0,0,0,51.14,0ZM18,9.7a2.39,2.39,0,0,1,2.39-2H39.13a2.36,2.36,0,0,1,2.32,2.74,2.4,2.4,0,0,1-2.39,2H20.29A2.36,2.36,0,0,1,18,9.7ZM41.49,32.87A11.49,11.49,0,1,1,30,21.39,11.49,11.49,0,0,1,41.49,32.87ZM45.43,69H14.59a2.23,2.23,0,0,1-2.22-2.22,18.43,18.43,0,0,1,5.15-13,17.54,17.54,0,0,1,25,0,18.43,18.43,0,0,1,5.15,13A2.23,2.23,0,0,1,45.43,69Z"/></g></g></svg>