<svg xmlns="http://www.w3.org/2000/svg" xmlns:xlink="http://www.w3.org/1999/xlink" viewBox="0 0 553.7 94.41"><defs><style>.cls-1{fill:url(#linear-gradient);}.cls-2{fill:url(#linear-gradient-2);}.cls-3{fill:url(#linear-gradient-3);}.cls-4{fill:url(#linear-gradient-4);}.cls-5{fill:url(#linear-gradient-5);}.cls-6{fill:url(#linear-gradient-8);}</style><linearGradient id="linear-gradient" x1="-5.9" y1="38.6" x2="570.28" y2="38.6" gradientUnits="userSpaceOnUse"><stop offset="0" stop-color="#ffce54"/><stop offset="1" stop-color="#ed5565"/></linearGradient><linearGradient id="linear-gradient-2" x1="-5.9" y1="57.4" x2="570.28" y2="57.4" xlink:href="#linear-gradient"/><linearGradient id="linear-gradient-3" x1="-5.9" y1="39.8" x2="570.28" y2="39.8" xlink:href="#linear-gradient"/><linearGradient id="linear-gradient-4" x1="-5.9" y1="47.3" x2="570.28" y2="47.3" xlink:href="#linear-gradient"/><linearGradient id="linear-gradient-5" x1="-5.9" y1="37.5" x2="570.28" y2="37.5" xlink:href="#linear-gradient"/><linearGradient id="linear-gradient-8" x1="-5.9" y1="41.75" x2="570.28" y2="41.75" xlink:href="#linear-gradient"/></defs><title>logo_mywallet_TGL</title><g id="Layer_2" data-name="Layer 2"><g id="Layer_1-2" data-name="Layer 1"><path class="cls-1" d="M114.51,23.7a41.71,41.71,0,0,1-.8,7.5l-8.6,43H88.91l8.4-42.5a24.79,24.79,0,0,0,.5-4.5c0-7.1-4.4-10.4-11.4-10.4-8.5,0-15.6,5-17.8,15.9L60.4,74.2H44.1l8.5-42.5a26.75,26.75,0,0,0,.5-4.6c0-7-4.1-10.3-10.9-10.3-8.2,0-15.5,4.8-17.7,15.9L16.3,74.2H0l14-70H29.7l-1.6,8.1C33.2,6.4,40.3,3,49.5,3c9.6,0,16.4,3.7,19.2,10.1C74.5,6.5,82.41,3,92.21,3,105.81,3,114.51,10.2,114.51,23.7Z"/><path class="cls-2" d="M185.1,20.4,176,65.8c-4.1,20.5-15.3,28.6-33.3,28.6-10.2,0-19-2.6-25-7.4L125,75.8c4.4,3.8,11.2,6,18.2,6,10.4,0,14.9-4.6,16.8-14.1l.4-1.7a26,26,0,0,1-16.5,5.6c-11.4,0-19.3-6.3-19.3-18.2a32.28,32.28,0,0,1,.7-6.6l5.2-26.4h15.6L141,45.8a17.52,17.52,0,0,0-.4,3.8c0,5.5,3,8.6,9,8.6,7.8,0,13.2-4.5,15.1-13.9l4.8-23.9Z"/><path class="cls-3" d="M308,4.2l-8.8,41.4c-4.3,20.8-15.3,29.8-36,29.8-8.9,0-15.9-2.8-19.9-8.1-5.9,5.4-13.9,8.1-22.8,8.1-16.1,0-26.9-8.2-26.9-22.9a32.76,32.76,0,0,1,.8-7.4l8.7-40.9h16.1l-9.1,43.1a23.63,23.63,0,0,0-.5,4.3c0,6.9,4.6,10,12.1,10,8.9,0,14.7-4.9,17.1-16l8.8-41.4h16l-9.1,42.5a19.53,19.53,0,0,0-.5,4.6c0,6.9,4.1,10.3,11.6,10.3,9.9,0,15.3-4.9,17.6-15.7L292,4.2Z"/><path class="cls-4" d="M377.1,61.8l-1.6,11.9A27.42,27.42,0,0,1,367,75c-7.9,0-12.9-3.4-14.7-8.7-4.6,5.6-11,8.7-19,8.7-12.5,0-23.2-8.8-23.2-24.1,0-18.1,13.1-31.3,29.7-31.3,7.8,0,14,2.5,17.5,8.1l1.4-7.3h15.6l-7,34.9a8.57,8.57,0,0,0-.2,2.2c0,3.5,2.1,5.1,5.5,5.1A11.69,11.69,0,0,0,377.1,61.8ZM353.9,44.4c0-7.3-4.5-11.9-12.3-11.9-9.2,0-15.8,7.2-15.8,17.7,0,7.3,4.5,11.9,12.3,11.9C347.3,62.1,353.9,54.9,353.9,44.4Z"/><path class="cls-5" d="M386.3,60.6a29.11,29.11,0,0,1,.5-4.9L398,0h15.6L402.5,55.3a8.57,8.57,0,0,0-.2,2.2c0,3.4,2.1,5.1,5.5,5.1a11.53,11.53,0,0,0,4.4-.8l-1.6,11.9a26.79,26.79,0,0,1-8.4,1.3C392.2,75,386.3,69.6,386.3,60.6Z"/><path class="cls-5" d="M421.4,60.6a29.11,29.11,0,0,1,.5-4.9L433.1,0h15.6L437.6,55.3a8.57,8.57,0,0,0-.2,2.2c0,3.4,2.1,5.1,5.5,5.1a11.53,11.53,0,0,0,4.4-.8l-1.6,11.9a26.79,26.79,0,0,1-8.4,1.3C427.3,75,421.4,69.6,421.4,60.6Z"/><path class="cls-4" d="M510.8,43.9c0,1,0,2-.1,3l-41.5,7.6c1.4,5.3,5.8,8,13.5,8,5.4,0,10.6-1.6,14.3-5l6.5,10.3c-6.2,5-14.2,7.2-22.5,7.2-16.8,0-27.5-9.5-27.5-24.1,0-17.9,12.9-31.3,31.7-31.3C500,19.6,510.8,27.9,510.8,43.9Zm-41.7,1.4,27.2-5c-.8-5.8-5.3-9-11.8-9C475.9,31.3,470.6,37.1,469.1,45.3Z"/><path class="cls-6" d="M533.7,55.2a8.57,8.57,0,0,0-.2,2.2c0,3.3,1.8,5.2,5.6,5.2a12.82,12.82,0,0,0,6.4-1.9l2.3,11.1c-3.9,2.4-8.8,3.2-13.5,3.2-10,0-16.7-5.6-16.7-15a25.86,25.86,0,0,1,.5-4.7l9.3-46.8H543l-2.6,13.1h13.3l-2.4,12H538Z"/></g></g></svg>