<svg id="Layer_1" data-name="Layer 1" xmlns="http://www.w3.org/2000/svg" xmlns:xlink="http://www.w3.org/1999/xlink" viewBox="0 0 1080 1920"><defs><style>.cls-1{fill:none;}.cls-2{fill:#f9f8ea;}.cls-3{clip-path:url(#clip-path);}.cls-4{opacity:0.9;}.cls-5{opacity:0.15;}.cls-10,.cls-11,.cls-12,.cls-13,.cls-5,.cls-6,.cls-7,.cls-8,.cls-9{fill:url(#radial-gradient);}.cls-6{opacity:0.2;}.cls-7{opacity:0.25;}.cls-8{opacity:0.3;}.cls-9{opacity:0.35;}.cls-10{opacity:0.4;}.cls-11{opacity:0.45;}.cls-12{opacity:0.5;}.cls-13{opacity:0.55;}</style><clipPath id="clip-path"><rect class="cls-1" width="1080" height="1920"/></clipPath><radialGradient id="radial-gradient" cx="2780.48" cy="2865.92" r="1649.29" gradientTransform="matrix(0.53, -0.82, 1.11, 1.04, -4707.01, -1195.77)" gradientUnits="userSpaceOnUse"><stop offset="0" stop-color="#92014e"/><stop offset="1" stop-color="#3b102c"/></radialGradient></defs><title>bg_settings_TGL</title><rect class="cls-2" x="-0.5" y="0.5" width="1080" height="1920"/><g class="cls-3"><g class="cls-4"><path class="cls-5" d="M502.85,1239.5C374.37,1156,258.33,1036,152.69,912.29,61,804.94-26.31,691.08-88.72,570.64c-94.59-182.54-124.89-376.08-71.54-508.17S32-134.16,199.27-93.79C272.47-76.13,348.55-40.2,423.79-4.57,640.4,98,1149.48,248.75,1322,457.34c140.2,169.54,156.21,514.48,119.79,650.37C1360.72,1410,852.86,1467.06,502.85,1239.5Z"/><path class="cls-6" d="M468.66,1133.24c-116.87-76-222.43-185.13-318.53-297.65C66.72,737.95-12.7,634.38-69.47,524.82c-86-166-113.61-342.1-65.08-462.26S40.34-116.31,192.5-79.59C259.08-63.52,328.29-30.84,396.73,1.57c197,93.29,660.13,230.44,817,420.18,127.53,154.23,142.09,468,109,591.61C1249,1288.37,787,1340.24,468.66,1133.24Z"/><path class="cls-7" d="M434.46,1027C329.19,958.55,234.12,860.24,147.57,758.9,72.44,671,.91,577.67-50.22,479c-77.49-149.55-102.32-308.12-58.61-416.35s157.53-161.1,294.57-128c60,14.47,122.3,43.91,183.95,73.1,177.48,84,594.56,207.55,735.88,378.45,114.86,138.91,128,421.52,98.14,532.85C1137.31,1166.71,721.22,1213.43,434.46,1027Z"/><path class="cls-8" d="M400.26,920.73C306.6,859.84,222,772.37,145,682.21,78.17,604,14.52,521-31,433.16-99.92,300.1-122,159-83.13,62.73S57-80.6,179-51.18c53.36,12.88,108.82,39.07,163.66,65,157.9,74.76,529,184.67,654.73,336.72,102.2,123.59,113.87,375,87.32,474.09C1025.61,1045,655.4,1086.61,400.26,920.73Z"/><path class="cls-9" d="M366.06,814.48c-82-53.34-156.15-130-223.62-209C83.89,537,28.13,464.25-11.73,387.34-72.13,270.77-91.48,147.17-57.41,62.82S65.37-62.75,172.19-37C218.93-25.7,267.52-2.75,315.57,20,453.9,85.49,779,181.78,889.15,315c89.53,108.27,99.75,328.55,76.5,415.34C913.91,923.38,589.58,959.8,366.06,814.48Z"/><path class="cls-10" d="M331.87,708.22c-70.44-45.8-134.06-111.58-192-179.4C89.61,470,41.74,407.55,7.52,341.51-44.33,241.43-60.95,135.32-31.7,62.9S73.71-44.9,165.42-22.77c40.13,9.68,81.84,29.38,123.1,48.91C407.28,82.37,686.39,165,781,279.39c76.87,93,85.64,282.07,65.67,356.58C802.2,801.72,523.76,833,331.87,708.22Z"/><path class="cls-11" d="M297.67,602c-58.83-38.25-112-93.2-160.35-149.83-42-49.16-82-101.29-110.55-156.45C-16.54,212.1-30.41,123.47-6,63s88-90,164.64-71.56C192.17-.48,227,16,261.46,32.28c99.19,47,332.31,116,411.29,211.52,64.2,77.64,71.53,235.59,54.85,297.82C690.5,680.06,457.94,706.17,297.67,602Z"/><path class="cls-12" d="M263.47,495.71C216.24,465,173.59,420.9,134.76,375.44,101.06,336,69,294.13,46,249.86,11.26,182.77.12,111.63,19.73,63.07S90.4-9.2,151.88,5.63c26.91,6.49,54.87,19.7,82.53,32.79C314,76.13,501.15,131.54,564.55,208.21c51.53,62.32,57.42,189.11,44,239.06C578.8,558.4,392.12,579.36,263.47,495.71Z"/><path class="cls-13" d="M229.27,389.46C193.65,366.3,161.49,333,132.2,298.75,106.78,269,82.57,237.42,65.27,204,39.05,153.43,30.65,99.78,45.44,63.16s53.3-54.51,99.67-43.32c20.29,4.9,41.38,14.86,62.24,24.73C267.4,73,408.53,114.8,456.35,172.62c38.87,47,43.3,142.63,33.21,180.3C467.09,436.73,326.3,452.54,229.27,389.46Z"/></g></g></svg>